<svg width="130" height="24" viewBox="0 0 130 24" fill="none" xmlns="http://www.w3.org/2000/svg">
<circle cx="8.77637" cy="9.53173" r="8.77637" transform="rotate(-90 8.77637 9.53173)" fill="#9A6A39"/>
<circle cx="17.5537" cy="9.53173" r="8.77637" transform="rotate(-90 17.5537 9.53173)" fill="#D79E67"/>
<path d="M16.5073 18.1071C15.6428 18.1071 14.9224 17.8798 14.3461 17.4251C13.7698 16.9553 13.3376 16.3263 13.0494 15.5382C12.7613 14.7501 12.6172 13.8711 12.6172 12.9011C12.6172 11.6129 12.8523 10.5217 13.3224 9.62746C13.7926 8.71812 14.422 8.0361 15.2106 7.58143C15.9992 7.1116 16.8713 6.87669 17.8268 6.87669C18.5699 6.87669 19.2827 7.05098 19.9652 7.39956H20.0562V4.55785C20.0562 4.05771 19.9955 3.73186 19.8742 3.5803C19.768 3.42874 19.495 3.35296 19.0552 3.35296C18.9491 3.35296 18.8202 3.36054 18.6685 3.3757C18.5168 3.39085 18.441 3.39843 18.441 3.39843V2.64822L21.5349 1.85254H22.3766V15.4246C22.3766 16.0156 22.46 16.3945 22.6269 16.5612C22.8089 16.728 23.1046 16.8113 23.5141 16.8113H23.9918V17.5388L20.7159 18.0162H20.1017V16.493H20.0107C19.586 16.8719 19.078 17.2357 18.4865 17.5843C17.9102 17.9328 17.2505 18.1071 16.5073 18.1071ZM17.6903 16.3794C18.1908 16.3794 18.6078 16.3112 18.9415 16.1748C19.2903 16.0232 19.6619 15.811 20.0562 15.5382V9.69566C19.95 9.25615 19.7225 8.85452 19.3737 8.49078C19.0401 8.11188 18.5396 7.92244 17.8723 7.92244C17.023 7.92244 16.3405 8.26344 15.8248 8.94545C15.3243 9.62746 15.0741 10.6732 15.0741 12.0827C15.0741 13.6134 15.294 14.7122 15.7338 15.3791C16.1888 16.0459 16.841 16.3794 17.6903 16.3794ZM28.1018 18.0844C27.2373 18.0844 26.5548 17.8571 26.0544 17.4024C25.569 16.9477 25.3264 16.3263 25.3264 15.5382C25.3264 14.9168 25.4629 14.394 25.7359 13.9696C26.024 13.5452 26.3956 13.1891 26.8506 12.9011C27.3056 12.6132 27.7985 12.3782 28.3293 12.1964C28.8753 11.9993 29.4061 11.8326 29.9217 11.6962C30.4374 11.5598 30.8999 11.431 31.3094 11.3098V10.264C31.3094 9.29404 31.1578 8.6196 30.8544 8.24071C30.5663 7.86181 30.1037 7.67237 29.4667 7.67237C28.8753 7.67237 28.4885 7.80119 28.3065 8.05884C28.1397 8.30133 28.0563 8.76358 28.0563 9.44559C28.0563 9.83964 27.9501 10.1352 27.7378 10.3322C27.5255 10.5141 27.2449 10.605 26.8961 10.605C26.6383 10.605 26.388 10.5065 26.1454 10.3095C25.9179 10.1124 25.8041 9.80175 25.8041 9.37739C25.8041 8.95303 25.9709 8.5514 26.3046 8.17251C26.6383 7.77846 27.1084 7.46776 27.715 7.24043C28.3369 6.99793 29.0648 6.87669 29.899 6.87669C31.2033 6.87669 32.1512 7.16465 32.7426 7.74057C33.3341 8.30133 33.6299 9.18037 33.6299 10.3777V15.47C33.6299 15.9247 33.6829 16.2278 33.7891 16.3794C33.9104 16.5158 34.0848 16.584 34.3123 16.584C34.5247 16.584 34.7142 16.5309 34.8811 16.4248C35.0631 16.3036 35.2375 16.1596 35.4043 15.9929L35.791 16.4021C35.4119 16.9477 35.0327 17.3645 34.6536 17.6525C34.2744 17.9253 33.7512 18.0617 33.0839 18.0617C32.5076 18.0617 32.1132 17.9404 31.9009 17.6979C31.7038 17.4403 31.5597 17.0614 31.4687 16.5612H31.3777C30.8469 17.0159 30.354 17.3872 29.899 17.6752C29.444 17.948 28.8449 18.0844 28.1018 18.0844ZM31.3094 15.7656V12.1054C30.6573 12.2721 30.0582 12.4692 29.5122 12.6965C28.9663 12.9087 28.534 13.1967 28.2155 13.5604C27.897 13.909 27.7378 14.3712 27.7378 14.9471C27.7378 15.5231 27.8667 15.9626 28.1245 16.2657C28.3824 16.5688 28.7388 16.7204 29.1938 16.7204C29.8762 16.7204 30.5815 16.4021 31.3094 15.7656ZM42.0725 17.9025H36.3852V17.175C36.8857 17.175 37.2497 17.1296 37.4772 17.0386C37.7047 16.9326 37.8412 16.7583 37.8867 16.5158C37.9473 16.2733 37.9776 15.9474 37.9776 15.5382V4.26231C37.9776 3.79248 37.8791 3.5121 37.6819 3.42116C37.4999 3.33023 37.2648 3.28476 36.9767 3.28476C36.7947 3.28476 36.6279 3.29234 36.4762 3.3075C36.3397 3.32265 36.2715 3.33023 36.2715 3.33023V2.62549L39.4336 1.85254H40.2981V15.5382C40.2981 15.9626 40.3284 16.296 40.3891 16.5385C40.4649 16.781 40.6241 16.9477 40.8668 17.0386C41.1246 17.1296 41.5265 17.175 42.0725 17.175V17.9025ZM48.7806 17.9025H43.1616V17.175C43.6621 17.175 44.0261 17.1296 44.2535 17.0386C44.481 16.9477 44.6251 16.7886 44.6857 16.5612C44.7464 16.3187 44.7767 15.9777 44.7767 15.5382V9.37739C44.7767 8.87725 44.6857 8.57414 44.5037 8.46804C44.3218 8.3468 44.064 8.28618 43.7304 8.28618C43.5787 8.28618 43.4422 8.29375 43.3209 8.30891C43.2147 8.32406 43.1616 8.33164 43.1616 8.33164V7.58143L46.2099 6.94489H47.0972V15.5155C47.0972 15.955 47.1275 16.296 47.1882 16.5385C47.264 16.781 47.4232 16.9477 47.6659 17.0386C47.9086 17.1296 48.2801 17.175 48.7806 17.175V17.9025ZM45.937 5.28533C45.4971 5.28533 45.1407 5.14893 44.8677 4.87612C44.6099 4.58816 44.481 4.23958 44.481 3.83037C44.481 3.43632 44.6099 3.10289 44.8677 2.83009C45.1256 2.54213 45.482 2.39815 45.937 2.39815C46.4071 2.39815 46.7711 2.53455 47.0289 2.80735C47.2867 3.08016 47.4157 3.42116 47.4157 3.83037C47.4157 4.23958 47.2867 4.58816 47.0289 4.87612C46.7711 5.14893 46.4071 5.28533 45.937 5.28533ZM58.9912 17.9025H50.0508V17.1296L56.2841 8.24071V8.17251H53.5542C52.72 8.17251 52.1513 8.39227 51.848 8.83178C51.5446 9.25615 51.3399 9.83964 51.2337 10.5823H50.4375L50.5513 7.14949H59.1505V7.94517L52.8944 16.834V16.9022H55.4651C56.0869 16.9022 56.5874 16.8265 56.9665 16.6749C57.3457 16.5233 57.6414 16.2581 57.8538 15.8792C58.0661 15.4852 58.2405 14.9244 58.377 14.1969H59.2187L58.9912 17.9025ZM63.603 18.0844C62.7385 18.0844 62.0561 17.8571 61.5556 17.4024C61.0703 16.9477 60.8276 16.3263 60.8276 15.5382C60.8276 14.9168 60.9641 14.394 61.2371 13.9696C61.5252 13.5452 61.8968 13.1891 62.3518 12.9011C62.8068 12.6132 63.2997 12.3782 63.8305 12.1964C64.3765 11.9993 64.9073 11.8326 65.423 11.6962C65.9386 11.5598 66.4012 11.431 66.8107 11.3098V10.264C66.8107 9.29404 66.659 8.6196 66.3557 8.24071C66.0675 7.86181 65.6049 7.67237 64.968 7.67237C64.3765 7.67237 63.9898 7.80119 63.8078 8.05884C63.6409 8.30133 63.5575 8.76358 63.5575 9.44559C63.5575 9.83964 63.4514 10.1352 63.239 10.3322C63.0267 10.5141 62.7461 10.605 62.3973 10.605C62.1395 10.605 61.8892 10.5065 61.6466 10.3095C61.4191 10.1124 61.3053 9.80175 61.3053 9.37739C61.3053 8.95303 61.4722 8.5514 61.8058 8.17251C62.1395 7.77846 62.6096 7.46776 63.2163 7.24043C63.8381 6.99793 64.5661 6.87669 65.4002 6.87669C66.7045 6.87669 67.6524 7.16465 68.2439 7.74057C68.8353 8.30133 69.1311 9.18037 69.1311 10.3777V15.47C69.1311 15.9247 69.1842 16.2278 69.2903 16.3794C69.4117 16.5158 69.5861 16.584 69.8136 16.584C70.0259 16.584 70.2155 16.5309 70.3823 16.4248C70.5643 16.3036 70.7387 16.1596 70.9055 15.9929L71.2923 16.4021C70.9131 16.9477 70.534 17.3645 70.1548 17.6525C69.7756 17.9253 69.2524 18.0617 68.5851 18.0617C68.0088 18.0617 67.6145 17.9404 67.4021 17.6979C67.205 17.4403 67.0609 17.0614 66.9699 16.5612H66.8789C66.3481 17.0159 65.8552 17.3872 65.4002 17.6752C64.9452 17.948 64.3462 18.0844 63.603 18.0844ZM66.8107 15.7656V12.1054C66.1585 12.2721 65.5594 12.4692 65.0135 12.6965C64.4675 12.9087 64.0352 13.1967 63.7168 13.5604C63.3983 13.909 63.239 14.3712 63.239 14.9471C63.239 15.5231 63.3679 15.9626 63.6258 16.2657C63.8836 16.5688 64.24 16.7204 64.695 16.7204C65.3775 16.7204 66.0827 16.4021 66.8107 15.7656ZM72.6705 23.2449C72.1852 23.2449 71.7757 23.1464 71.442 22.9494C71.1235 22.7524 70.9643 22.4265 70.9643 21.9719C70.9643 21.6233 71.0629 21.358 71.26 21.1762C71.4724 21.0095 71.7302 20.9261 72.0335 20.9261C72.4278 20.9261 72.7767 21.0095 73.08 21.1762C73.3985 21.358 73.6563 21.449 73.8535 21.449C74.0658 21.449 74.3009 21.305 74.5587 21.017C74.8165 20.7291 75.0516 20.3805 75.2639 19.9713C75.4914 19.5772 75.6734 19.1832 75.8099 18.7891C75.9464 18.4102 76.0146 18.1299 76.0146 17.948C76.0146 17.7207 75.916 17.3872 75.7189 16.9477C75.5369 16.5082 75.3549 16.099 75.1729 15.7201L71.8515 8.69538C71.7454 8.43773 71.5861 8.24071 71.3738 8.10431C71.1766 7.95275 70.8809 7.87697 70.4866 7.87697V7.14949H75.7644V7.8997C75.2639 7.8997 74.9227 7.95275 74.7407 8.05884C74.5587 8.14977 74.4677 8.29375 74.4677 8.49078C74.4677 8.64234 74.5056 8.80905 74.5814 8.99092C74.6573 9.15763 74.7331 9.32435 74.8089 9.49106L76.9701 14.2197L77.3113 15.3336H77.4706L79.6318 8.96819C79.6469 8.87725 79.6621 8.78632 79.6773 8.69538C79.7076 8.58929 79.7228 8.50593 79.7228 8.44531C79.7228 8.23313 79.609 8.08915 79.3815 8.01337C79.154 7.92244 78.8583 7.87697 78.4943 7.87697V7.14949H82.4754V7.87697C82.0204 7.87697 81.6868 7.97548 81.4744 8.17251C81.2621 8.36953 81.0725 8.6878 80.9057 9.12732L77.1976 18.3572C76.5151 20.0698 75.8326 21.3126 75.1502 22.0855C74.4677 22.8585 73.6411 23.2449 72.6705 23.2449ZM95.148 17.9025H89.4835V17.175C89.9991 17.175 90.3707 17.122 90.5982 17.0159C90.8408 16.9098 90.9925 16.7204 91.0532 16.4476C91.1138 16.1748 91.1441 15.7883 91.1441 15.2882V11.1052C91.1441 10.1049 90.9773 9.43044 90.6437 9.08185C90.3252 8.73327 89.9005 8.55898 89.3697 8.55898C88.8389 8.55898 88.346 8.70296 87.891 8.99092C87.4512 9.27888 87.0644 9.57442 86.7308 9.87753V15.5837C86.7308 16.2202 86.8294 16.6446 87.0265 16.8568C87.2389 17.069 87.7014 17.175 88.4142 17.175V17.9025H82.8407V17.175C83.326 17.175 83.6748 17.1296 83.8871 17.0386C84.1146 16.9477 84.2587 16.7886 84.3194 16.5612C84.38 16.3187 84.4104 15.9777 84.4104 15.5382V9.33193C84.4104 8.92272 84.3345 8.64991 84.1829 8.51351C84.0312 8.37711 83.7961 8.30891 83.4777 8.30891C83.2957 8.30891 83.144 8.31649 83.0227 8.33164C82.9165 8.3468 82.8634 8.35438 82.8634 8.35438V7.60416L85.9118 6.94489H86.6626V8.78632H86.7763C87.3526 8.27102 87.9213 7.82392 88.4825 7.44503C89.0436 7.06613 89.7185 6.87669 90.5072 6.87669C91.2048 6.87669 91.7735 7.05856 92.2134 7.4223C92.6684 7.77088 93.002 8.24071 93.2143 8.83178H93.3281C93.9347 8.22555 94.5338 7.74814 95.1253 7.39956C95.7319 7.05098 96.3613 6.87669 97.0135 6.87669C97.9538 6.87669 98.7045 7.18738 99.2656 7.80877C99.8419 8.415 100.13 9.42286 100.13 10.8323V15.2882C100.13 15.758 100.16 16.1293 100.221 16.4021C100.282 16.6749 100.426 16.8719 100.653 16.9932C100.881 17.1144 101.245 17.175 101.745 17.175V17.9025H96.24V17.175C96.7253 17.175 97.0741 17.1144 97.2865 16.9932C97.5139 16.8568 97.658 16.6522 97.7187 16.3794C97.7794 16.1066 97.8097 15.7428 97.8097 15.2882V11.1961C97.8097 10.1503 97.6277 9.45317 97.2637 9.10459C96.9149 8.74085 96.4751 8.55898 95.9443 8.55898C95.5044 8.55898 95.0646 8.69538 94.6248 8.96819C94.2001 9.24099 93.8134 9.52895 93.4646 9.83207C93.4646 9.86238 93.4646 9.88511 93.4646 9.90027V15.2882C93.4646 15.7883 93.4949 16.1748 93.5556 16.4476C93.6314 16.7052 93.7906 16.8947 94.0333 17.0159C94.276 17.122 94.6475 17.175 95.148 17.175V17.9025ZM105.086 18.1071C104.6 18.1071 104.229 17.9707 103.971 17.6979C103.728 17.4251 103.607 17.069 103.607 16.6294C103.607 16.2051 103.736 15.8489 103.994 15.561C104.267 15.2578 104.638 15.1063 105.108 15.1063C105.594 15.1063 105.965 15.2578 106.223 15.561C106.481 15.8641 106.61 16.2278 106.61 16.6522C106.61 17.0614 106.481 17.41 106.223 17.6979C105.965 17.9707 105.586 18.1071 105.086 18.1071ZM114.752 17.9025H108.609V17.175C109.11 17.175 109.474 17.1372 109.701 17.0614C109.944 16.9704 110.096 16.8113 110.156 16.584C110.232 16.3566 110.27 16.0308 110.27 15.6064V9.582C110.27 9.17279 110.224 8.86209 110.133 8.64991C110.058 8.43773 109.823 8.33164 109.428 8.33164C109.201 8.33164 109.026 8.33922 108.905 8.35438C108.784 8.36953 108.723 8.37711 108.723 8.37711V7.6269L111.771 6.94489H112.545V9.28646H112.636C113.212 8.46804 113.698 7.85423 114.092 7.44503C114.486 7.02067 114.979 6.80849 115.571 6.80849C116.071 6.80849 116.435 6.94489 116.662 7.21769C116.905 7.47534 117.026 7.82392 117.026 8.26344C117.026 8.76358 116.905 9.12732 116.662 9.35466C116.435 9.582 116.185 9.69566 115.912 9.69566C115.639 9.69566 115.396 9.62746 115.184 9.49106C114.987 9.3395 114.812 9.19552 114.661 9.05912C114.524 8.92272 114.403 8.85452 114.297 8.85452C114.039 8.85452 113.758 9.02123 113.455 9.35466C113.152 9.68809 112.863 10.0594 112.59 10.4686V15.4928C112.59 16.2051 112.742 16.6673 113.045 16.8795C113.349 17.0765 113.917 17.175 114.752 17.175V17.9025ZM122.289 18.1299C121.288 18.1299 120.515 17.8267 119.969 17.2205C119.438 16.6143 119.173 15.5458 119.173 14.0151V9.46833C119.173 9.04396 119.127 8.74085 119.036 8.55898C118.96 8.36195 118.809 8.24071 118.581 8.19524C118.354 8.13462 118.035 8.09673 117.626 8.08157V7.35409L120.833 7.03582H121.493V13.6059C121.493 14.3636 121.576 14.9471 121.743 15.3564C121.91 15.7656 122.137 16.0459 122.426 16.1975C122.714 16.3491 123.04 16.4248 123.404 16.4248C123.95 16.4248 124.412 16.3112 124.792 16.0838C125.186 15.8565 125.603 15.5534 126.043 15.1745V9.42286C126.043 9.01365 125.99 8.71812 125.884 8.53625C125.777 8.33922 125.588 8.21797 125.315 8.17251C125.057 8.11188 124.678 8.08157 124.177 8.08157V7.35409L127.703 7.03582H128.363V15.1972C128.363 15.8944 128.462 16.3339 128.659 16.5158C128.856 16.6825 129.235 16.7658 129.796 16.7658H130.001V17.4479L126.771 18.0162H126.157V16.1975H126.043C125.406 16.8492 124.807 17.3342 124.246 17.6525C123.684 17.9707 123.032 18.1299 122.289 18.1299Z" fill="#313132"/>
</svg>
