<svg width="237" height="42" viewBox="0 0 237 42" fill="none" xmlns="http://www.w3.org/2000/svg">
<circle cx="16" cy="16.5" r="16" transform="rotate(-90 16 16.5)" fill="#9A6A39"/>
<circle cx="32" cy="16.5" r="16" transform="rotate(-90 32 16.5)" fill="#D79E67"/>
<path d="M30.092 32.1334C28.516 32.1334 27.2027 31.7189 26.152 30.89C25.1013 30.0335 24.3133 28.8868 23.788 27.4501C23.2627 26.0133 23 24.4107 23 22.6424C23 20.2938 23.4286 18.3045 24.2857 16.6743C25.1428 15.0165 26.2902 13.7731 27.728 12.9442C29.1657 12.0877 30.7556 11.6594 32.4975 11.6594C33.8523 11.6594 35.1518 11.9772 36.396 12.6126H36.5619V7.43199C36.5619 6.52019 36.4513 5.92614 36.2301 5.64984C36.0366 5.37354 35.5389 5.23539 34.737 5.23539C34.5435 5.23539 34.3085 5.2492 34.032 5.27683C33.7555 5.30446 33.6173 5.31828 33.6173 5.31828V3.95059L39.2577 2.5H40.7922V27.2428C40.7922 28.3204 40.9443 29.0112 41.2484 29.3151C41.5802 29.619 42.1194 29.771 42.8659 29.771H43.7368V31.0972L37.7646 31.9676H36.6448V29.1908H36.4789C35.7048 29.8815 34.7785 30.5446 33.7002 31.1801C32.6495 31.8156 31.4468 32.1334 30.092 32.1334ZM32.2486 28.9835C33.161 28.9835 33.9214 28.8592 34.5297 28.6105C35.1656 28.3342 35.843 27.9474 36.5619 27.4501V16.7986C36.3683 15.9973 35.9536 15.2651 35.3177 14.602C34.7094 13.9113 33.797 13.5659 32.5804 13.5659C31.0321 13.5659 29.7879 14.1876 28.8478 15.4309C27.9354 16.6743 27.4792 18.5808 27.4792 21.1504C27.4792 23.941 27.8801 25.9442 28.6819 27.1599C29.5114 28.3757 30.7003 28.9835 32.2486 28.9835ZM51.2296 32.0919C49.6536 32.0919 48.4094 31.6775 47.497 30.8486C46.6122 30.0197 46.1698 28.8868 46.1698 27.4501C46.1698 26.3172 46.4187 25.364 46.9164 24.5903C47.4417 23.8167 48.1191 23.1674 48.9486 22.6424C49.778 22.1174 50.6766 21.6892 51.6444 21.3576C52.6397 20.9984 53.6074 20.6945 54.5475 20.4458C55.4876 20.1971 56.3309 19.9623 57.0774 19.7412V17.8348C57.0774 16.0664 56.8009 14.8369 56.2479 14.1461C55.7226 13.4554 54.8793 13.11 53.718 13.11C52.6397 13.11 51.9347 13.3448 51.6029 13.8146C51.2987 14.2566 51.1467 15.0994 51.1467 16.3427C51.1467 17.0611 50.9531 17.5999 50.566 17.9591C50.179 18.2906 49.6674 18.4564 49.0315 18.4564C48.5615 18.4564 48.1053 18.2768 47.6629 17.9176C47.2481 17.5584 47.0408 16.992 47.0408 16.2184C47.0408 15.4447 47.3449 14.7125 47.9532 14.0218C48.5615 13.3034 49.4186 12.737 50.5246 12.3225C51.6582 11.8804 52.9853 11.6594 54.506 11.6594C56.8839 11.6594 58.6119 12.1844 59.6902 13.2343C60.7686 14.2566 61.3077 15.8592 61.3077 18.042V27.3257C61.3077 28.1546 61.4045 28.7072 61.598 28.9835C61.8192 29.2322 62.1372 29.3565 62.5519 29.3565C62.939 29.3565 63.2846 29.2598 63.5888 29.0664C63.9206 28.8454 64.2385 28.5829 64.5427 28.279L65.2477 29.025C64.5565 30.0197 63.8653 30.7795 63.174 31.3045C62.4828 31.8018 61.5289 32.0505 60.3123 32.0505C59.2617 32.0505 58.5428 31.8294 58.1557 31.3874C57.7963 30.9176 57.5336 30.2269 57.3677 29.3151H57.2018C56.2341 30.144 55.3355 30.8209 54.506 31.3459C53.6766 31.8433 52.5844 32.0919 51.2296 32.0919ZM57.0774 27.8645V21.1918C55.8885 21.4957 54.7964 21.8549 53.801 22.2694C52.8056 22.6562 52.0176 23.1812 51.437 23.8443C50.8564 24.4798 50.566 25.3225 50.566 26.3725C50.566 27.4224 50.8011 28.2237 51.2711 28.7763C51.7411 29.3289 52.3909 29.6052 53.2204 29.6052C54.4646 29.6052 55.7502 29.025 57.0774 27.8645ZM76.6993 31.7604H66.3309V30.4341C67.2433 30.4341 67.9069 30.3512 68.3217 30.1854C68.7364 29.992 68.9852 29.6743 69.0682 29.2322C69.1788 28.7901 69.2341 28.1961 69.2341 27.4501V6.8932C69.2341 6.03666 69.0544 5.52551 68.6949 5.35972C68.3631 5.19394 67.9346 5.11105 67.4092 5.11105C67.0774 5.11105 66.7733 5.12487 66.4968 5.1525C66.248 5.18013 66.1236 5.19394 66.1236 5.19394V3.90914L71.8884 2.5H73.4644V27.4501C73.4644 28.2237 73.5197 28.8316 73.6303 29.2736C73.7685 29.7157 74.0588 30.0197 74.5012 30.1854C74.9713 30.3512 75.704 30.4341 76.6993 30.4341V31.7604ZM88.9287 31.7604H78.6849V30.4341C79.5973 30.4341 80.2609 30.3512 80.6754 30.1854C81.0902 30.0197 81.3529 29.7295 81.4634 29.3151C81.574 28.873 81.6293 28.2513 81.6293 27.4501V16.2184C81.6293 15.3066 81.4634 14.754 81.1317 14.5606C80.7999 14.3395 80.33 14.229 79.7217 14.229C79.4452 14.229 79.1964 14.2428 78.9752 14.2705C78.7817 14.2981 78.6849 14.3119 78.6849 14.3119V12.9442L84.2422 11.7837H85.8597V27.4086C85.8597 28.2099 85.915 28.8316 86.0255 29.2736C86.1638 29.7157 86.4541 30.0197 86.8965 30.1854C87.3389 30.3512 88.0163 30.4341 88.9287 30.4341V31.7604ZM83.7445 8.75824C82.9427 8.75824 82.2929 8.50957 81.7952 8.01222C81.3252 7.48725 81.0902 6.85175 81.0902 6.10574C81.0902 5.38736 81.3252 4.77949 81.7952 4.28215C82.2653 3.75717 82.915 3.49469 83.7445 3.49469C84.6016 3.49469 85.2652 3.74336 85.7352 4.2407C86.2053 4.73805 86.4403 5.35972 86.4403 6.10574C86.4403 6.85175 86.2053 7.48725 85.7352 8.01222C85.2652 8.50957 84.6016 8.75824 83.7445 8.75824ZM107.543 31.7604H91.2443V30.3512L102.608 14.1461V14.0218H97.6312C96.1105 14.0218 95.0737 14.4224 94.5207 15.2237C93.9678 15.9973 93.5945 17.0611 93.4009 18.415H91.9494L92.1567 12.1567H107.834V13.6073L96.4285 29.8124V29.9368H101.115C102.249 29.9368 103.161 29.7986 103.852 29.5223C104.544 29.246 105.083 28.7625 105.47 28.0717C105.857 27.3533 106.175 26.331 106.424 25.0048H107.958L107.543 31.7604ZM115.951 32.0919C114.375 32.0919 113.131 31.6775 112.218 30.8486C111.334 30.0197 110.891 28.8868 110.891 27.4501C110.891 26.3172 111.14 25.364 111.638 24.5903C112.163 23.8167 112.841 23.1674 113.67 22.6424C114.5 22.1174 115.398 21.6892 116.366 21.3576C117.361 20.9984 118.329 20.6945 119.269 20.4458C120.209 20.1971 121.052 19.9623 121.799 19.7412V17.8348C121.799 16.0664 121.522 14.8369 120.969 14.1461C120.444 13.4554 119.601 13.11 118.44 13.11C117.361 13.11 116.656 13.3448 116.324 13.8146C116.02 14.2566 115.868 15.0994 115.868 16.3427C115.868 17.0611 115.675 17.5999 115.288 17.9591C114.9 18.2906 114.389 18.4564 113.753 18.4564C113.283 18.4564 112.827 18.2768 112.384 17.9176C111.97 17.5584 111.762 16.992 111.762 16.2184C111.762 15.4447 112.066 14.7125 112.675 14.0218C113.283 13.3034 114.14 12.737 115.246 12.3225C116.38 11.8804 117.707 11.6594 119.228 11.6594C121.605 11.6594 123.333 12.1844 124.412 13.2343C125.49 14.2566 126.029 15.8592 126.029 18.042V27.3257C126.029 28.1546 126.126 28.7072 126.319 28.9835C126.541 29.2322 126.859 29.3565 127.273 29.3565C127.66 29.3565 128.006 29.2598 128.31 29.0664C128.642 28.8454 128.96 28.5829 129.264 28.279L129.969 29.025C129.278 30.0197 128.587 30.7795 127.896 31.3045C127.204 31.8018 126.25 32.0505 125.034 32.0505C123.983 32.0505 123.264 31.8294 122.877 31.3874C122.518 30.9176 122.255 30.2269 122.089 29.3151H121.923C120.956 30.144 120.057 30.8209 119.228 31.3459C118.398 31.8433 117.306 32.0919 115.951 32.0919ZM121.799 27.8645V21.1918C120.61 21.4957 119.518 21.8549 118.522 22.2694C117.527 22.6562 116.739 23.1812 116.158 23.8443C115.578 24.4798 115.288 25.3225 115.288 26.3725C115.288 27.4224 115.523 28.2237 115.993 28.7763C116.463 29.3289 117.112 29.6052 117.942 29.6052C119.186 29.6052 120.472 29.025 121.799 27.8645ZM132.482 41.5C131.597 41.5 130.85 41.3204 130.242 40.9612C129.662 40.602 129.371 40.008 129.371 39.1791C129.371 38.5436 129.551 38.06 129.91 37.7285C130.298 37.4245 130.768 37.2726 131.321 37.2726C132.039 37.2726 132.675 37.4245 133.228 37.7285C133.809 38.06 134.279 38.2258 134.638 38.2258C135.026 38.2258 135.454 37.9633 135.924 37.4384C136.394 36.9134 136.823 36.2779 137.21 35.5319C137.625 34.8135 137.956 34.0951 138.205 33.3767C138.454 32.686 138.578 32.1748 138.578 31.8433C138.578 31.4288 138.399 30.8209 138.039 30.0197C137.707 29.2184 137.376 28.4724 137.044 27.7816L130.989 14.975C130.795 14.5053 130.505 14.1461 130.118 13.8975C129.758 13.6211 129.219 13.483 128.5 13.483V12.1567H138.122V13.5244C137.21 13.5244 136.588 13.6211 136.256 13.8146C135.924 13.9803 135.758 14.2428 135.758 14.602C135.758 14.8783 135.827 15.1823 135.966 15.5138C136.104 15.8177 136.242 16.1217 136.38 16.4256L140.32 25.0462L140.942 27.077H141.233L145.173 15.4724C145.2 15.3066 145.228 15.1408 145.256 14.975C145.311 14.7816 145.339 14.6297 145.339 14.5191C145.339 14.1323 145.131 13.8698 144.717 13.7317C144.302 13.5659 143.763 13.483 143.099 13.483V12.1567H150.357V13.483C149.527 13.483 148.919 13.6626 148.532 14.0218C148.145 14.381 147.799 14.9612 147.495 15.7625L140.735 32.5893C139.491 35.7115 138.247 37.9772 137.002 39.3863C135.758 40.7954 134.251 41.5 132.482 41.5ZM173.46 31.7604H163.133V30.4341C164.073 30.4341 164.751 30.3374 165.165 30.144C165.608 29.9506 165.884 29.6052 165.995 29.1079C166.105 28.6105 166.161 27.906 166.161 26.9942V19.3682C166.161 17.5446 165.857 16.3151 165.248 15.6796C164.668 15.0441 163.893 14.7264 162.926 14.7264C161.958 14.7264 161.059 14.9888 160.23 15.5138C159.428 16.0388 158.723 16.5776 158.115 17.1302V27.5329C158.115 28.6934 158.295 29.4671 158.654 29.8539C159.041 30.2407 159.884 30.4341 161.184 30.4341V31.7604H151.023V30.4341C151.908 30.4341 152.544 30.3512 152.931 30.1854C153.345 30.0197 153.608 29.7295 153.719 29.3151C153.829 28.873 153.885 28.2513 153.885 27.4501V16.1355C153.885 15.3895 153.746 14.8921 153.47 14.6435C153.193 14.3948 152.765 14.2705 152.184 14.2705C151.852 14.2705 151.576 14.2843 151.355 14.3119C151.161 14.3395 151.064 14.3533 151.064 14.3533V12.9857L156.622 11.7837H157.99V15.1408H158.198C159.248 14.2014 160.285 13.3863 161.308 12.6955C162.331 12.0048 163.562 11.6594 164.999 11.6594C166.271 11.6594 167.308 11.991 168.11 12.6541C168.939 13.2896 169.548 14.1461 169.935 15.2237H170.142C171.248 14.1185 172.34 13.2481 173.419 12.6126C174.525 11.9772 175.672 11.6594 176.861 11.6594C178.575 11.6594 179.944 12.2258 180.967 13.3587C182.017 14.4639 182.543 16.3013 182.543 18.8709V26.9942C182.543 27.8507 182.598 28.5276 182.709 29.025C182.819 29.5223 183.082 29.8815 183.497 30.1026C183.911 30.3236 184.575 30.4341 185.487 30.4341V31.7604H175.451V30.4341C176.336 30.4341 176.971 30.3236 177.359 30.1026C177.773 29.8539 178.036 29.4809 178.147 28.9835C178.257 28.4862 178.312 27.8231 178.312 26.9942V19.534C178.312 17.6275 177.981 16.3565 177.317 15.721C176.681 15.0579 175.879 14.7264 174.912 14.7264C174.11 14.7264 173.308 14.975 172.506 15.4724C171.732 15.9697 171.027 16.4947 170.391 17.0473C170.391 17.1026 170.391 17.144 170.391 17.1716V26.9942C170.391 27.906 170.446 28.6105 170.557 29.1079C170.695 29.5776 170.985 29.923 171.428 30.144C171.87 30.3374 172.548 30.4341 173.46 30.4341V31.7604ZM191.577 32.1334C190.692 32.1334 190.015 31.8847 189.545 31.3874C189.103 30.89 188.881 30.2407 188.881 29.4394C188.881 28.6658 189.116 28.0165 189.586 27.4915C190.084 26.9389 190.761 26.6626 191.619 26.6626C192.503 26.6626 193.181 26.9389 193.651 27.4915C194.121 28.0441 194.356 28.7072 194.356 29.4809C194.356 30.2269 194.121 30.8624 193.651 31.3874C193.181 31.8847 192.49 32.1334 191.577 32.1334ZM209.199 31.7604H198.001V30.4341C198.913 30.4341 199.577 30.365 199.992 30.2269C200.434 30.0611 200.711 29.771 200.821 29.3565C200.959 28.9421 201.029 28.348 201.029 27.5744V16.5914C201.029 15.8454 200.946 15.279 200.78 14.8921C200.641 14.5053 200.213 14.3119 199.494 14.3119C199.079 14.3119 198.761 14.3257 198.54 14.3533C198.319 14.381 198.208 14.3948 198.208 14.3948V13.0271L203.766 11.7837H205.176V16.0526H205.342C206.392 14.5606 207.277 13.4416 207.996 12.6955C208.715 11.9219 209.614 11.5351 210.692 11.5351C211.604 11.5351 212.268 11.7837 212.683 12.2811C213.125 12.7508 213.346 13.3863 213.346 14.1876C213.346 15.0994 213.125 15.7625 212.683 16.1769C212.268 16.5914 211.812 16.7986 211.314 16.7986C210.816 16.7986 210.374 16.6743 209.987 16.4256C209.627 16.1493 209.309 15.8868 209.033 15.6382C208.784 15.3895 208.563 15.2651 208.369 15.2651C207.899 15.2651 207.388 15.5691 206.835 16.1769C206.282 16.7848 205.757 17.4617 205.259 18.2078V27.3672C205.259 28.6658 205.535 29.5085 206.088 29.8953C206.641 30.2545 207.678 30.4341 209.199 30.4341V31.7604ZM222.94 32.1748C221.116 32.1748 219.705 31.6222 218.71 30.517C217.742 29.4118 217.259 27.4639 217.259 24.6732V16.3842C217.259 15.6105 217.176 15.0579 217.01 14.7264C216.871 14.3672 216.595 14.1461 216.18 14.0632C215.765 13.9527 215.185 13.8836 214.438 13.856V12.5298L220.286 11.9495H221.489V23.9272C221.489 25.3087 221.641 26.3725 221.945 27.1185C222.249 27.8645 222.664 28.3757 223.189 28.652C223.715 28.9283 224.309 29.0664 224.973 29.0664C225.968 29.0664 226.811 28.8592 227.503 28.4447C228.221 28.0303 228.982 27.4777 229.784 26.7869V16.3013C229.784 15.5553 229.687 15.0165 229.493 14.6849C229.3 14.3257 228.954 14.1047 228.456 14.0218C227.986 13.9113 227.295 13.856 226.383 13.856V12.5298L232.811 11.9495H234.014V26.8284C234.014 28.0994 234.194 28.9006 234.553 29.2322C234.912 29.5361 235.604 29.6881 236.627 29.6881H237V30.9315L231.111 31.9676H229.991V28.652H229.784C228.622 29.8401 227.53 30.7242 226.507 31.3045C225.484 31.8847 224.295 32.1748 222.94 32.1748Z" fill="white"/>
</svg>
